# xmcd
#
# Track frame offsets:
# 182
# 16557
# 34000
# 54320
#
# Disc length: 859 seconds
#
#
# Revision: 0
# Processed by: cddbd v1.5.2PL0 Copyright (c) Steve Scherf et al.
# Submitted via: FreeRIP 2.70 
#
DISCID=1f035904
DTITLE=DJ Tomekk feat. KRS ONE, Torch and MC Rene - Maxi
DYEAR=2001
DGENRE=Hip-Hop
TTITLE0=Return of Hip Hop (OOH, OOH) Radio Version
TTITLE1=Return of Hip Hop (OOH, OOH) Boulevard Boo Remix
TTITLE2=Return of Hip Hop (OOH, OOH)  DJ Rocky Remix
TTITLE3=Return of Hip Hop (OOH, OOH) Instrumental
EXTD=FILA Records, BMG, www.rhymes-galore.com
EXTT0=
EXTT1=
EXTT2=
EXTT3=
PLAYORDER=
